<?xml version="1.0" encoding="utf-8"?>
<!-- Generator: Adobe Illustrator 16.0.0, SVG Export Plug-In . SVG Version: 6.00 Build 0)  -->
<!DOCTYPE svg PUBLIC "-//W3C//DTD SVG 1.1//EN" "http://www.w3.org/Graphics/SVG/1.1/DTD/svg11.dtd">
<svg version="1.1" id="Layer_1" xmlns="http://www.w3.org/2000/svg" xmlns:xlink="http://www.w3.org/1999/xlink" x="0px" y="0px"
	 width="1262.903px" height="154.839px" viewBox="0 0 1262.903 154.839" enable-background="new 0 0 1262.903 154.839"
	 xml:space="preserve">
<g>
	<defs>
		<path id="SVGID_1_" d="M7.595,36.241c0.035,30.247-3.8,60.485-4.785,90.729c-0.248,7.691-5.573,19.13,45.625,21.602
			c5.045,0.244,10.128,0.448,15.239,0.619c45.383,1.516,93.126,0.366,138.767,0.265c53.546-0.119,107.146-0.024,160.695-0.024
			c49.878,0,99.756-0.636,149.631-0.636c49.877,0,99.755,0.101,149.633,0.101c161.673,0,323.336,1.169,485.034,0.914
			c32.517-0.051,75.246-0.087,94.829-5.827c24.067-7.055,16.121-16.171,13.652-24.029c-2.815-8.975-4.146-18.023-4.146-27.014
			c-0.003-25.323,3.329-50.627,4.784-75.946c0.248-4.356,5.573-10.835-45.624-12.235c-5.046-0.138-10.13-0.254-15.24-0.351
			c-45.382-0.858-93.126-0.207-138.767-0.15c-53.546,0.068-107.146,0.014-160.694,0.014c-49.878,0-99.756,0.36-149.631,0.36
			c-49.877,0-99.755-0.057-149.634-0.057c-161.673,0-323.335-0.662-485.034-0.518c-32.516,0.03-75.246,0.05-94.83,3.3
			c-24.066,3.997-16.12,9.16-13.652,13.612C6.259,26.042,7.589,31.158,7.595,36.241z"/>
	</defs>
	<clipPath id="SVGID_2_">
		<use xlink:href="#SVGID_1_"  overflow="visible"/>
	</clipPath>
	<g clip-path="url(#SVGID_2_)">
		<defs>
			<rect id="SVGID_3_" x="-809.678" y="23.968" width="2880" height="4060"/>
		</defs>
		<clipPath id="SVGID_4_">
			<use xlink:href="#SVGID_3_"  overflow="visible"/>
		</clipPath>
		<rect x="-9.797" y="-6.032" clip-path="url(#SVGID_4_)" fill="#5EBB4B" width="1278.959" height="166"/>
	</g>
</g>
</svg>
